<?xml version="1.0" standalone="no"?>
<!DOCTYPE svg PUBLIC "-//W3C//DTD SVG 20010904//EN"
 "http://www.w3.org/TR/2001/REC-SVG-20010904/DTD/svg10.dtd">
<svg version="1.0" xmlns="http://www.w3.org/2000/svg"
 width="2000.000000pt" height="2000.000000pt" viewBox="0 0 2000.000000 2000.000000"
 preserveAspectRatio="xMidYMid meet">

<g transform="translate(0.000000,2000.000000) scale(0.100000,-0.100000)"
fill="#000000" stroke="none">
<path d="M12280 15460 l0 -580 580 0 580 0 0 580 0 580 -580 0 -580 0 0 -580z"/>
<path d="M10970 15050 l0 -490 490 0 490 0 0 490 0 490 -490 0 -490 0 0 -490z"/>
<path d="M13170 14235 l0 -405 398 2 397 3 0 400 0 400 -397 3 -398 2 0 -405z"/>
<path d="M8553 13392 l-1522 -907 -1 -620 0 -620 1523 -907 c837 -499 1527
-908 1532 -910 10 -3 3035 1791 3063 1816 9 9 12 142 10 624 l-3 611 -530
-316 c-291 -174 -979 -583 -1528 -910 l-997 -595 -1007 600 c-554 329 -1008
603 -1010 609 -2 5 449 279 1002 608 l1005 598 0 614 c0 337 -3 613 -7 612 -5
0 -693 -409 -1530 -907z"/>
<path d="M12070 13855 l0 -395 395 0 395 0 0 395 0 395 -395 0 -395 0 0 -395z"/>
<path d="M11210 13445 l0 -255 250 0 250 0 0 255 0 255 -250 0 -250 0 0 -255z"/>
<path d="M7032 10109 l3 -623 1525 -908 c839 -500 1530 -907 1536 -906 6 2
697 412 1537 913 l1527 909 0 613 c0 337 -2 613 -4 613 -3 0 -689 -408 -1526
-906 -897 -534 -1528 -904 -1538 -902 -14 4 -2955 1751 -3040 1806 l-22 14 2
-623z"/>
<path d="M10984 5426 c-135 -31 -240 -114 -297 -234 -30 -62 -32 -74 -32 -172
0 -86 5 -115 24 -163 33 -84 115 -168 207 -213 67 -33 84 -38 174 -42 169 -8
300 45 388 157 150 189 101 480 -102 608 -96 61 -246 85 -362 59z m197 -158
c51 -15 114 -70 141 -121 29 -57 35 -149 14 -221 -54 -185 -306 -237 -436 -90
-47 54 -62 98 -62 179 0 115 44 194 134 239 58 29 141 35 209 14z"/>
<path d="M11975 5428 c-222 -42 -375 -259 -337 -478 39 -217 206 -350 440
-350 100 0 170 17 259 60 l63 31 0 170 0 169 -85 0 -85 0 0 -123 0 -124 -27
-12 c-14 -7 -54 -15 -88 -18 -181 -17 -306 105 -293 286 11 149 109 240 259
241 77 0 118 -12 177 -52 l42 -29 38 29 c20 17 46 40 57 52 l20 22 -39 34
c-99 86 -251 121 -401 92z"/>
<path d="M12877 5429 c-80 -16 -155 -56 -216 -114 -193 -184 -165 -498 57
-645 129 -85 337 -94 481 -21 57 30 134 102 166 156 81 140 68 340 -32 470
-42 55 -136 119 -207 140 -65 20 -188 27 -249 14z m239 -184 c30 -19 60 -49
79 -79 25 -42 31 -62 34 -128 7 -164 -79 -272 -230 -285 -103 -10 -195 37
-246 125 -25 42 -28 57 -28 137 0 101 17 144 77 202 52 51 92 64 184 61 70 -3
87 -7 130 -33z"/>
<path d="M6630 5021 l0 -411 220 0 c123 0 242 5 272 11 211 44 341 215 325
424 -14 177 -108 297 -278 356 -57 20 -89 23 -301 27 l-238 4 0 -411z m459
233 c106 -31 166 -120 165 -244 0 -107 -59 -191 -159 -231 -16 -6 -85 -14
-152 -17 l-123 -5 0 257 0 256 108 0 c69 0 127 -6 161 -16z"/>
<path d="M7836 5421 c-12 -19 -356 -796 -356 -803 0 -5 42 -8 94 -8 l94 0 34
83 35 82 190 3 191 2 34 -82 35 -83 101 -3 102 -3 -35 78 c-20 43 -102 227
-183 408 l-147 330 -92 3 c-52 2 -94 -1 -97 -7z m158 -341 c31 -74 56 -138 56
-142 0 -5 -56 -8 -124 -8 l-124 0 62 149 c33 82 64 147 68 143 3 -4 31 -68 62
-142z"/>
<path d="M8340 5350 l0 -80 130 0 130 0 0 -330 0 -330 95 0 95 0 0 330 0 330
130 0 130 0 0 80 0 80 -355 0 -355 0 0 -80z"/>
<path d="M9356 5398 c-7 -18 -88 -200 -180 -405 -91 -205 -166 -375 -166 -378
0 -3 43 -4 97 -3 l96 3 35 83 34 82 191 -2 190 -3 35 -82 34 -83 100 0 c54 0
97 3 95 8 -2 4 -84 188 -183 410 l-179 402 -92 0 -93 0 -14 -32z m172 -320
l61 -148 -125 0 c-68 0 -124 2 -124 5 0 6 110 276 117 288 7 12 5 16 71 -145z"/>
<path d="M10010 5015 l0 -405 295 0 295 0 0 75 0 75 -205 0 -205 0 0 330 0
330 -90 0 -90 0 0 -405z"/>
</g>
</svg>
